<svg width="1440" height="1136" viewBox="0 0 1440 1136" fill="none" xmlns="http://www.w3.org/2000/svg">
<path opacity="0.5" d="M97.3169 200.072C101.968 194.607 107.714 198.706 127.962 194.061C134.529 192.422 142.463 190.782 150.398 185.864C164.626 176.847 172.287 163.185 172.287 163.185C172.561 162.639 176.665 155.261 184.053 147.884C185.695 146.245 187.063 144.878 189.525 144.332C193.082 143.239 195.818 144.605 202.112 147.064C206.763 148.704 211.414 150.343 216.887 151.436C221.538 152.256 225.642 152.802 230.294 151.436C234.125 150.343 236.587 148.43 240.144 145.152C260.118 128.211 269.968 119.741 271.063 117.828C271.61 117.008 272.978 114.549 274.346 114.822C275.714 115.096 275.988 117.281 277.356 119.741C278.177 121.38 278.997 122.2 286.111 128.211C292.952 133.949 293.499 133.949 294.32 135.588C296.782 140.233 295.141 145.152 294.867 145.971C294.046 148.43 291.857 150.89 287.753 155.808C283.649 160.453 282.281 161.273 281.186 164.278C280.639 165.918 279.271 168.923 280.366 171.929C281.46 174.934 283.649 175.481 286.659 178.487C288.848 180.946 289.942 183.132 291.857 187.777C293.499 191.329 295.688 196.793 297.056 204.171C297.877 209.636 297.603 213.188 300.339 214.827C301.707 215.647 302.802 215.647 304.991 215.373C309.095 215.1 313.473 215.647 317.577 215.373C327.701 214.281 338.646 220.292 343.297 223.024C348.222 225.756 354.515 229.309 359.44 236.413C360.535 238.052 363.271 241.877 364.913 247.342C366.007 250.894 366.007 253.353 367.922 259.911C369.29 264.556 370.111 266.196 371.479 267.288C373.668 269.201 376.678 269.201 379.688 269.201C390.906 269.474 388.991 271.387 398.02 271.114C402.398 271.114 408.691 270.841 415.805 268.108C420.457 266.469 420.457 265.376 426.476 262.917C431.675 260.731 435.505 259.911 441.251 258.272C451.101 255.813 456.026 254.72 460.678 254.446C466.15 254.173 469.707 254.446 471.349 252.26C472.717 250.075 471.349 248.162 471.896 244.337C472.443 239.692 475.453 236.686 478.737 232.861C482.841 228.489 485.577 227.123 491.87 222.478C497.069 218.652 500.626 215.647 507.74 209.636C514.854 203.351 520.6 198.16 522.789 195.974C529.629 189.416 533.186 186.137 535.375 183.678C538.385 180.399 540.3 178.213 543.857 175.754C548.508 172.475 552.339 170.836 553.16 170.563C557.264 168.923 561.095 167.557 565.746 168.65C566.841 168.923 570.398 169.743 573.681 172.749C575.323 174.388 576.964 176.574 578.606 183.678C579.701 187.777 579.974 190.782 580.795 200.345C581.889 211.548 581.89 212.914 582.71 215.92C583.531 218.652 585.173 221.658 588.73 227.669C589.551 229.035 590.645 230.948 592.834 231.768C594.749 232.587 596.665 232.041 597.212 232.041C603.779 230.675 610.619 231.768 617.186 230.675C623.479 229.855 639.349 227.396 656.039 228.216C658.775 228.216 662.332 228.489 669.446 228.489C674.919 228.762 679.57 228.762 685.59 227.942C687.779 227.669 689.147 227.396 689.694 227.396C694.072 226.576 699.544 224.937 712.404 218.652C716.782 216.466 718.971 215.373 723.896 213.188C732.925 209.089 735.114 208.816 736.482 209.909C739.766 212.095 736.756 218.652 739.766 220.838C743.323 223.571 751.805 218.379 756.182 215.647C765.485 210.182 776.43 206.357 798.319 198.979C821.303 191.055 830.332 191.875 835.804 182.858C838.541 178.213 837.993 175.208 842.371 170.016C846.749 164.825 851.127 163.185 859.609 158.54C869.186 153.076 870.28 151.163 877.394 147.064C890.254 139.14 902.293 136.135 915.427 132.583C926.918 129.577 927.192 130.397 966.045 123.566C992.039 119.194 995.869 118.101 1001.62 114.549C1010.37 109.084 1012.29 104.439 1026.24 95.6958C1033.35 91.324 1038.28 88.0451 1045.94 85.8593C1052.23 83.9466 1066.46 80.1213 1074.94 86.679C1076.86 88.0451 1078.77 90.5043 1083.43 92.9634C1083.7 93.2366 1087.26 95.1493 1091.63 96.5155C1102.85 100.341 1114.89 98.4281 1126.93 101.434C1130.21 102.253 1147.18 106.625 1153.47 120.014C1154.29 121.927 1155.11 127.391 1157.03 138.594C1158.67 148.977 1158.94 154.715 1159.22 159.087C1159.49 165.918 1159.49 169.196 1158.67 172.749C1157.3 178.76 1155.11 180.399 1152.1 188.323C1152.1 188.323 1150.19 193.515 1148.55 200.345C1145.81 211.548 1147.45 219.745 1148.27 231.494C1149.09 244.063 1148.55 253.353 1147.73 265.103C1146.36 288.601 1143.35 290.514 1145.26 301.17C1148 314.832 1155.11 324.395 1158.67 328.767C1160.59 330.953 1169.61 342.155 1185.21 349.26C1192.05 352.538 1197.8 354.997 1204.64 353.631C1209.56 352.812 1212.3 350.352 1213.67 351.719C1215.86 353.631 1210.66 360.735 1208.74 372.211C1207.92 377.676 1208.74 378.223 1208.74 388.879C1208.74 411.284 1205.46 414.29 1208.74 418.115C1214.21 424.673 1223.52 417.296 1238.57 424.4C1247.6 428.771 1246.5 432.597 1254.16 435.329C1267.57 440.247 1274.96 430.411 1284.81 435.329C1292.74 439.428 1297.12 450.357 1295.75 458.554C1294.11 466.751 1287.82 467.571 1280.7 477.681C1275.5 485.058 1274.14 493.529 1271.13 510.469C1267.84 529.596 1266.2 539.159 1268.39 551.728C1270.85 566.483 1275.23 565.663 1278.24 583.15C1279.88 591.621 1281.8 602.277 1279.33 615.392C1276.6 629.874 1271.67 632.06 1272.49 643.536C1273.32 653.099 1277.15 655.831 1275.5 663.209C1273.86 669.22 1270.85 670.313 1265.38 679.33C1262.37 684.521 1259.36 689.713 1258.27 696.27C1256.08 709.659 1264.29 714.85 1261.28 728.512C1260.46 732.337 1259.63 736.436 1256.08 738.075C1250.06 741.354 1244.04 732.884 1236.65 735.616C1232 737.256 1232.82 741.081 1223.52 751.464C1218.32 757.202 1217.5 756.929 1215.31 759.934C1210.11 767.585 1212.03 776.055 1213.12 787.805C1213.67 793.816 1213.39 805.565 1213.12 829.337C1212.85 850.649 1211.75 857.207 1206.83 859.939C1202.45 862.672 1198.89 859.393 1191.78 862.125C1186.03 864.311 1183.57 867.863 1177.28 874.967C1174.81 877.973 1164.96 888.356 1154.84 896.553C1142.53 906.116 1141.16 902.837 1132.68 910.761C1124.47 918.412 1124.74 922.51 1114.89 933.44C1113.52 935.079 1110.24 938.631 1099.02 948.195C1078.5 965.682 1068.38 974.425 1058.25 978.797C1045.67 983.989 1034.45 985.082 1027.06 985.901C1020.49 986.448 1013.93 986.448 1001.07 986.174C985.746 985.901 978.084 985.628 975.075 983.169C967.413 977.431 970.423 968.687 960.847 958.031C957.016 953.933 953.733 949.288 949.902 949.561C944.977 950.107 945.798 957.758 938.684 963.496C931.296 969.507 920.078 969.234 912.964 969.234C906.944 969.234 903.114 968.141 898.189 970.6C894.358 972.513 893.537 974.425 890.254 976.338C883.414 980.163 876.026 978.251 872.743 977.704C872.469 977.704 842.098 979.617 781.902 983.715C750.71 985.901 735.388 986.994 734.84 986.994C732.925 987.814 725.811 990.546 723.349 987.814C721.433 985.628 724.99 981.803 724.443 976.065C723.896 965.135 710.215 956.938 708.026 955.845C699.818 951.2 696.808 953.113 691.883 948.468C690.241 946.828 687.779 944.096 683.948 930.708C678.476 911.854 679.57 905.023 674.371 902.291C669.994 900.105 666.984 903.384 660.691 900.651C654.671 897.919 651.935 892.181 651.388 891.088C649.199 886.443 650.567 883.984 650.841 871.415C651.114 857.753 649.746 855.021 648.378 853.381C646.189 850.922 643.179 849.829 636.065 849.01C616.639 846.551 610.346 850.649 596.391 847.643C588.73 846.004 582.984 842.998 579.974 841.359C571.766 836.987 566.293 831.796 557.264 823.325C545.499 812.123 546.867 811.303 541.121 807.204C531.818 800.92 528.808 803.379 517.316 797.095C510.202 792.996 503.088 788.898 498.984 780.974C496.795 776.875 496.522 769.771 495.974 755.836C495.427 741.081 496.248 739.988 494.88 736.163C492.691 730.425 489.681 728.512 476.548 717.583C455.479 700.096 452.469 695.997 450.554 692.718C445.355 683.975 443.44 675.231 442.893 671.952C440.704 660.476 443.987 657.744 441.251 646.814C438.789 636.431 433.59 629.327 431.948 627.141C427.571 621.13 422.645 617.578 418.541 614.572C412.522 609.927 407.323 607.468 405.681 606.649C393.095 600.091 384.613 586.702 368.743 562.384C361.629 551.181 353.147 540.798 346.033 529.596C343.844 526.044 341.655 522.765 337.551 520.306C329.89 515.661 324.144 519.213 317.03 514.295C314.567 512.655 312.652 509.923 308.821 504.458C304.444 498.447 302.255 494.075 301.16 492.162C294.32 480.686 283.649 482.326 253.278 465.932C249.447 463.746 244.522 461.013 237.134 459.374C231.936 458.281 227.831 458.008 219.897 458.008C205.942 457.734 204.3 459.101 196.639 458.008C189.525 457.188 184.327 456.368 179.128 452.816C169.825 446.532 170.646 438.061 159.428 431.504C156.418 429.864 156.691 430.411 152.587 428.498C152.587 428.498 141.916 422.76 134.529 414.017C122.763 399.808 124.405 379.042 124.952 368.659C125.226 364.014 127.415 354.178 131.245 334.505C134.255 319.477 135.349 316.198 133.981 309.913C132.34 301.99 129.33 301.17 121.942 285.322C116.47 273.846 118.659 274.939 114.281 266.469C108.535 255.266 104.431 252.26 100.053 240.785C99.2322 238.599 97.8641 235.047 96.7697 230.402C94.5807 219.745 91.571 206.903 97.3169 200.072Z" fill="#FBF7F4" stroke="url(#paint0_linear_53_526)" stroke-width="3" stroke-miterlimit="10"/>
<g opacity="0.25">
<path d="M754 415C786.033 415 812 440.941 812 472.941C812 483.83 808.992 494.016 803.763 502.719L772.679 556.503C789.003 560.99 800.399 571.178 800.399 583.029L800.396 583.403C800.075 599.231 779.426 612 754 612L752.802 611.99C727.928 611.597 707.919 598.982 707.604 583.403L707.6 583.029C707.6 571.179 718.998 560.991 735.321 556.504L704.236 502.719C699.007 494.017 696 483.83 696 472.941C696 440.941 721.967 415 754 415ZM754 588.823L735.839 557.399C730.52 558.838 725.737 560.884 721.72 563.393C713.491 568.53 708.6 575.499 708.6 583.029C708.6 590.559 713.492 597.528 721.72 602.666C729.934 607.795 741.344 611 754 611C766.655 611 778.065 607.795 786.279 602.666C794.508 597.528 799.399 590.56 799.399 583.029C799.399 575.499 794.508 568.53 786.279 563.393C782.262 560.884 777.479 558.838 772.16 557.399L754 588.823ZM754 449.765C741.187 449.765 730.8 460.141 730.8 472.941C730.8 485.741 741.187 496.117 754 496.117C766.813 496.117 777.2 485.741 777.2 472.941C777.2 460.141 766.813 449.765 754 449.765Z" fill="url(#paint1_linear_53_526)"/>
</g>
<g opacity="0.25">
<path d="M223.5 164C255.809 164 282 189.941 282 221.941C282 232.828 278.967 243.013 273.694 251.714L242.339 305.504C258.804 309.991 270.3 320.178 270.3 332.029L270.296 332.403C269.972 348.231 249.145 361 223.5 361L222.292 360.99C197.204 360.597 177.023 347.982 176.704 332.403L176.7 332.029C176.7 320.178 188.196 309.991 204.66 305.504L173.305 251.714C168.032 243.013 165 232.828 165 221.941C165 189.941 191.191 164 223.5 164ZM223.5 337.823L205.182 306.398C199.814 307.837 194.988 309.885 190.934 312.395C182.631 317.534 177.7 324.503 177.7 332.029C177.7 339.555 182.631 346.525 190.934 351.664C199.221 356.794 210.732 360 223.5 360C236.268 360 247.779 356.794 256.066 351.664C264.369 346.525 269.3 339.555 269.3 332.029C269.3 324.503 264.369 317.534 256.066 312.395C252.012 309.885 247.185 307.837 241.817 306.398L223.5 337.823ZM223.5 198.765C210.577 198.765 200.1 209.141 200.1 221.941C200.1 234.741 210.577 245.117 223.5 245.117C236.423 245.117 246.9 234.741 246.9 221.941C246.9 209.141 236.423 198.765 223.5 198.765Z" fill="url(#paint2_linear_53_526)"/>
</g>
<g opacity="0.25">
<path d="M1050 119C1082.03 119 1108 144.941 1108 176.941C1108 187.83 1104.99 198.016 1099.76 206.719L1068.68 260.503C1085 264.99 1096.4 275.178 1096.4 287.029L1096.4 287.403C1096.07 303.231 1075.43 316 1050 316L1048.8 315.99C1023.93 315.597 1003.92 302.982 1003.6 287.403L1003.6 287.029C1003.6 275.179 1015 264.991 1031.32 260.504L1000.24 206.719C995.007 198.017 992 187.83 992 176.941C992 144.941 1017.97 119 1050 119ZM1050 292.823L1031.84 261.399C1026.52 262.838 1021.74 264.884 1017.72 267.393C1009.49 272.53 1004.6 279.499 1004.6 287.029C1004.6 294.559 1009.49 301.528 1017.72 306.666C1025.93 311.795 1037.34 315 1050 315C1062.66 315 1074.07 311.795 1082.28 306.666C1090.51 301.528 1095.4 294.56 1095.4 287.029C1095.4 279.499 1090.51 272.53 1082.28 267.393C1078.26 264.884 1073.48 262.838 1068.16 261.399L1050 292.823ZM1050 153.765C1037.19 153.765 1026.8 164.141 1026.8 176.941C1026.8 189.741 1037.19 200.117 1050 200.117C1062.81 200.117 1073.2 189.741 1073.2 176.941C1073.2 164.141 1062.81 153.765 1050 153.765Z" fill="url(#paint3_linear_53_526)"/>
</g>
<g opacity="0.25">
<path d="M1104 514C1136.03 514 1162 539.941 1162 571.941C1162 582.83 1158.99 593.016 1153.76 601.719L1122.68 655.503C1139 659.99 1150.4 670.178 1150.4 682.029L1150.4 682.403C1150.07 698.231 1129.43 711 1104 711L1102.8 710.99C1077.93 710.597 1057.92 697.982 1057.6 682.403L1057.6 682.029C1057.6 670.179 1069 659.991 1085.32 655.504L1054.24 601.719C1049.01 593.017 1046 582.83 1046 571.941C1046 539.941 1071.97 514 1104 514ZM1104 687.823L1085.84 656.399C1080.52 657.838 1075.74 659.884 1071.72 662.393C1063.49 667.53 1058.6 674.499 1058.6 682.029C1058.6 689.559 1063.49 696.528 1071.72 701.666C1079.93 706.795 1091.34 710 1104 710C1116.66 710 1128.07 706.795 1136.28 701.666C1144.51 696.528 1149.4 689.56 1149.4 682.029C1149.4 674.499 1144.51 667.53 1136.28 662.393C1132.26 659.884 1127.48 657.838 1122.16 656.399L1104 687.823ZM1104 548.765C1091.19 548.765 1080.8 559.141 1080.8 571.941C1080.8 584.741 1091.19 595.117 1104 595.117C1116.81 595.117 1127.2 584.741 1127.2 571.941C1127.2 559.141 1116.81 548.765 1104 548.765Z" fill="url(#paint4_linear_53_526)"/>
</g>
<g opacity="0.25">
<path d="M798 738C830.585 738 857 763.941 857 795.941C857 806.818 853.946 816.994 848.638 825.69L817.001 879.503C833.606 883.99 845.2 894.178 845.2 906.029L845.196 906.403C844.87 922.231 823.864 935 798 935L796.781 934.99C771.479 934.597 751.125 921.982 750.804 906.403L750.8 906.029C750.8 894.179 762.394 883.991 778.999 879.504L747.361 825.69C742.053 816.994 739 806.818 739 795.941C739 763.941 765.415 738 798 738ZM798 911.823L779.524 880.398C774.109 881.837 769.238 883.886 765.147 886.396C756.771 891.538 751.8 898.507 751.8 906.029C751.8 913.551 756.771 920.521 765.147 925.662C773.507 930.793 785.12 934 798 934C810.88 934 822.493 930.793 830.853 925.662C839.229 920.521 844.2 913.551 844.2 906.029C844.2 898.508 839.229 891.538 830.853 886.396C826.761 883.885 821.89 881.837 816.474 880.398L798 911.823ZM798 772.765C784.966 772.765 774.4 783.141 774.4 795.941C774.401 808.741 784.966 819.117 798 819.117C811.034 819.117 821.599 808.741 821.6 795.941C821.6 783.141 811.034 772.765 798 772.765Z" fill="url(#paint5_linear_53_526)"/>
</g>
<g opacity="0.25">
<path d="M511 353C543.033 353 569 378.941 569 410.941C569 421.83 565.992 432.016 560.763 440.719L529.679 494.503C546.003 498.99 557.399 509.178 557.399 521.029L557.396 521.403C557.075 537.231 536.426 550 511 550L509.802 549.99C484.928 549.597 464.919 536.982 464.604 521.403L464.6 521.029C464.6 509.179 475.998 498.991 492.321 494.504L461.236 440.719C456.007 432.017 453 421.83 453 410.941C453 378.941 478.967 353 511 353ZM511 526.823L492.839 495.399C487.52 496.838 482.737 498.884 478.72 501.393C470.491 506.53 465.6 513.499 465.6 521.029C465.6 528.559 470.492 535.528 478.72 540.666C486.934 545.795 498.344 549 511 549C523.655 549 535.065 545.795 543.279 540.666C551.508 535.528 556.399 528.56 556.399 521.029C556.399 513.499 551.508 506.53 543.279 501.393C539.262 498.884 534.479 496.838 529.16 495.399L511 526.823ZM511 387.765C498.187 387.765 487.8 398.141 487.8 410.941C487.8 423.741 498.187 434.117 511 434.117C523.813 434.117 534.2 423.741 534.2 410.941C534.2 398.141 523.813 387.765 511 387.765Z" fill="url(#paint6_linear_53_526)"/>
</g>
<defs>
<linearGradient id="paint0_linear_53_526" x1="94" y1="536" x2="1296" y2="536" gradientUnits="userSpaceOnUse">
<stop stop-color="#D4DCF4"/>
<stop offset="1" stop-color="#DAE3FF"/>
</linearGradient>
<linearGradient id="paint1_linear_53_526" x1="696" y1="513.5" x2="812" y2="513.5" gradientUnits="userSpaceOnUse">
<stop stop-color="#D4DCF4"/>
<stop offset="1" stop-color="#DAE3FF"/>
</linearGradient>
<linearGradient id="paint2_linear_53_526" x1="165" y1="262.5" x2="282" y2="262.5" gradientUnits="userSpaceOnUse">
<stop stop-color="#D4DCF4"/>
<stop offset="1" stop-color="#DAE3FF"/>
</linearGradient>
<linearGradient id="paint3_linear_53_526" x1="992" y1="217.5" x2="1108" y2="217.5" gradientUnits="userSpaceOnUse">
<stop stop-color="#D4DCF4"/>
<stop offset="1" stop-color="#DAE3FF"/>
</linearGradient>
<linearGradient id="paint4_linear_53_526" x1="1046" y1="612.5" x2="1162" y2="612.5" gradientUnits="userSpaceOnUse">
<stop stop-color="#D4DCF4"/>
<stop offset="1" stop-color="#DAE3FF"/>
</linearGradient>
<linearGradient id="paint5_linear_53_526" x1="739" y1="836.5" x2="857" y2="836.5" gradientUnits="userSpaceOnUse">
<stop stop-color="#D4DCF4"/>
<stop offset="1" stop-color="#DAE3FF"/>
</linearGradient>
<linearGradient id="paint6_linear_53_526" x1="453" y1="451.5" x2="569" y2="451.5" gradientUnits="userSpaceOnUse">
<stop stop-color="#D4DCF4"/>
<stop offset="1" stop-color="#DAE3FF"/>
</linearGradient>
</defs>
</svg>
