<svg width="22" height="18" viewBox="0 0 22 18" fill="none" xmlns="http://www.w3.org/2000/svg">
<path fill-rule="evenodd" clip-rule="evenodd" d="M0.0678711 0.864502H21.9323V2.11662H0.0678711V0.864502ZM0.0678711 3.36874H21.9323V4.62086H0.0678711V3.36874ZM0.0678711 5.8698H21.9323V7.1251H0.0678711V5.8698ZM0.0678711 8.37404H21.9323V9.62616H0.0678711V8.37404ZM0.0678711 10.8783H21.9323V12.1304H0.0678711V10.8783ZM0.0678711 13.3793H21.9323V14.6315H0.0678711V13.3793ZM0.0678711 15.8836H21.9323V17.1357H0.0678711V15.8836Z" fill="#BD3D44"/>
<path fill-rule="evenodd" clip-rule="evenodd" d="M0.0678711 2.11646H21.9323V3.36857H0.0678711V2.11646ZM0.0678711 4.62069H21.9323V5.86963H0.0678711V4.62069ZM0.0678711 7.12175H21.9323V8.37387H0.0678711V7.12175ZM0.0678711 9.62599H21.9323V10.8781H0.0678711V9.62599ZM0.0678711 12.1302H21.9323V13.3823H0.0678711V12.1302ZM0.0678711 14.6313H21.9323V15.8834H0.0678711V14.6313Z" fill="white"/>
<path fill-rule="evenodd" clip-rule="evenodd" d="M0.0678711 0.864502H11.9111V9.90405H0.0678711V0.864502Z" fill="#192F5D"/>
<path fill-rule="evenodd" clip-rule="evenodd" d="M0.569278 0.864502L0.689615 1.26005H1.07068L0.763155 1.50319L0.88015 1.90236L0.569278 1.6556L0.261748 1.89873L0.378743 1.50319L0.0678711 1.26005H0.455625L0.569278 0.864502ZM2.7387 0.864502L2.85569 1.26005H3.2401L2.92923 1.50319L3.04623 1.90236L2.7387 1.6556L2.42782 1.89873L2.54482 1.50319L2.23729 1.26005H2.61836L2.7387 0.864502ZM4.90477 0.864502L5.02511 1.26005H5.40284L5.09531 1.50319L5.2123 1.90236L4.90143 1.6556L4.5939 1.89873L4.7109 1.50319L4.40002 1.26005H4.78443L4.90477 0.864502ZM7.07419 0.864502L7.19119 1.26005H7.5756L7.26473 1.50319L7.38506 1.90236L7.07419 1.6556L6.76332 1.89873L6.88366 1.50319L6.57278 1.26005H6.95385L7.07419 0.864502ZM9.24027 0.864502L9.3606 1.26005H9.74167L9.43414 1.50319L9.55114 1.90236L9.24027 1.6556L8.93274 1.89873L9.04973 1.50319L8.7422 1.26005H9.12327L9.24027 0.864502ZM11.4097 0.864502L11.5267 1.26005H11.9111L11.6002 1.50319L11.7206 1.90236L11.4097 1.6556L11.0988 1.89873L11.2192 1.50319L10.9083 1.26005H11.2927L11.4097 0.864502ZM1.65566 1.86607L1.77265 2.26162H2.15706L1.84619 2.50476L1.95984 2.90031L1.659 2.65717L1.34813 2.90031L1.45844 2.50476L1.15759 2.26162H1.53866L1.65566 1.86607ZM3.82173 1.86607L3.94207 2.26162H4.32314L4.01227 2.50476L4.13261 2.90031L3.82173 2.65717L3.51086 2.90031L3.6312 2.50476L3.32033 2.26162H3.70474L3.82173 1.86607ZM5.99115 1.86607L6.10815 2.26162H6.49256L6.18169 2.50476L6.29868 2.90031L5.99115 2.65717L5.68028 2.90031L5.79728 2.50476L5.48975 2.26162H5.87082L5.99115 1.86607ZM8.15723 1.86607L8.27757 2.26162H8.65863L8.34776 2.50476L8.4681 2.90031L8.15723 2.65717L7.8497 2.90031L7.96669 2.50476L7.65582 2.26162H8.04358L8.15723 1.86607ZM10.3266 1.86607L10.4436 2.26162H10.8281L10.5172 2.50476L10.6342 2.90031L10.3266 2.65717L10.0158 2.90031L10.1328 2.50476L9.82524 2.26162H10.2063L10.3266 1.86607ZM0.569278 2.86402L0.689615 3.26682H1.07068L0.763155 3.50996L0.88015 3.90551L0.569278 3.65874L0.261748 3.90551L0.378743 3.50633L0.0678711 3.26319H0.455625L0.569278 2.86402ZM2.7387 2.86402L2.85569 3.26319H3.2401L2.92923 3.50633L3.04623 3.90188L2.7387 3.65511L2.42782 3.90188L2.54482 3.5027L2.23729 3.25956H2.61836L2.7387 2.86402ZM4.90477 2.86402L5.02511 3.26319H5.40284L5.09531 3.50633L5.2123 3.90188L4.90143 3.65511L4.5939 3.90188L4.7109 3.5027L4.40002 3.25956H4.78443L4.90477 2.86402ZM7.07419 2.86402L7.19119 3.26319H7.5756L7.26473 3.50633L7.38506 3.90188L7.07419 3.65511L6.76332 3.90188L6.88366 3.5027L6.57278 3.25956H6.95385L7.07419 2.86402ZM9.24027 2.86402L9.3606 3.26319H9.74167L9.43414 3.50633L9.55114 3.90188L9.24027 3.65511L8.93274 3.90188L9.04973 3.5027L8.7422 3.25956H9.12327L9.24027 2.86402ZM11.4097 2.86402L11.5267 3.26319H11.9111L11.6002 3.50633L11.7206 3.90188L11.4097 3.65511L11.0988 3.90188L11.2192 3.5027L10.9083 3.25956H11.2927L11.4097 2.86402ZM1.65566 3.86559L1.77265 4.26114H2.15706L1.84619 4.50427L1.96319 4.90345L1.65566 4.65668L1.34479 4.89982L1.46178 4.50427L1.15425 4.26114H1.53532L1.65566 3.86559ZM3.82173 3.86559L3.94207 4.26114H4.32314L4.01227 4.50427L4.13261 4.90345L3.82173 4.65668L3.51086 4.89982L3.6312 4.50427L3.32033 4.26114H3.70474L3.82173 3.86559ZM5.99115 3.86559L6.10815 4.26114H6.49256L6.18169 4.50427L6.29868 4.90345L5.99115 4.65668L5.68028 4.89982L5.79728 4.50427L5.48975 4.26114H5.87082L5.99115 3.86559ZM8.15723 3.86559L8.27757 4.26114H8.65863L8.35111 4.50427L8.4681 4.90345L8.15723 4.65668L7.8497 4.89982L7.96669 4.50427L7.65582 4.26114H8.04358L8.15723 3.86559ZM10.3266 3.86559L10.4436 4.26114H10.8281L10.5172 4.50427L10.6342 4.90345L10.3266 4.65668L10.0158 4.89982L10.1328 4.50427L9.82524 4.26114H10.2063L10.3266 3.86559ZM0.569278 4.86716L0.689615 5.26271H1.07068L0.763155 5.50584L0.88015 5.90502L0.569278 5.65826L0.261748 5.90139L0.378743 5.50584L0.0678711 5.26271H0.455625L0.569278 4.86716ZM2.7387 4.86716L2.85569 5.26271H3.2401L2.92923 5.50584L3.04623 5.90139L2.7387 5.65826L2.42782 5.90139L2.54482 5.50584L2.23729 5.26271H2.61836L2.7387 4.86716ZM4.90477 4.86716L5.02511 5.26271H5.40284L5.09531 5.50584L5.2123 5.90502L4.90143 5.65826L4.5939 5.90139L4.7109 5.50584L4.40002 5.26271H4.78443L4.90477 4.86716ZM7.07419 4.86716L7.19119 5.26271H7.5756L7.26473 5.50584L7.38506 5.90502L7.07419 5.65826L6.76332 5.90139L6.88366 5.50584L6.57278 5.26271H6.95385L7.07419 4.86716ZM9.24027 4.86716L9.3606 5.26271H9.74167L9.43414 5.50584L9.55114 5.90502L9.24027 5.65826L8.93274 5.90139L9.04973 5.50584L8.7422 5.26271H9.12327L9.24027 4.86716ZM11.4097 4.86716L11.5267 5.26271H11.9111L11.6002 5.50584L11.7206 5.90502L11.4097 5.65826L11.0988 5.90139L11.2192 5.50584L10.9083 5.26271H11.2927L11.4097 4.86716ZM1.65566 5.86873L1.77265 6.26428H2.15706L1.84619 6.50742L1.96319 6.90296L1.65566 6.6562L1.34479 6.90296L1.46178 6.50379L1.15425 6.26065H1.53532L1.65566 5.86873ZM3.82173 5.86873L3.94207 6.26428H4.32314L4.01227 6.50742L4.13261 6.90296L3.82173 6.6562L3.51086 6.90296L3.6312 6.50379L3.32033 6.26065H3.70474L3.82173 5.86873ZM5.99115 5.86873L6.10815 6.26428H6.49256L6.18169 6.50742L6.29868 6.90296L5.99115 6.6562L5.68028 6.90296L5.79728 6.50379L5.48975 6.26065H5.87082L5.99115 5.86873ZM8.15723 5.86873L8.27757 6.26428H8.65863L8.35111 6.50742L8.4681 6.90296L8.15723 6.6562L7.8497 6.90296L7.96669 6.50379L7.65582 6.26065H8.04358L8.15723 5.86873ZM10.3266 5.86873L10.4436 6.26428H10.8281L10.5172 6.50742L10.6342 6.90296L10.3266 6.6562L10.0158 6.90296L10.1328 6.50379L9.82524 6.26065H10.2063L10.3266 5.86873ZM0.569278 6.86667L0.689615 7.26585H1.07068L0.763155 7.50899L0.88015 7.90091L0.569278 7.65777L0.261748 7.90091L0.378743 7.50536L0.0678711 7.26222H0.455625L0.569278 6.86667ZM2.7387 6.86667L2.85569 7.26585H3.2401L2.92923 7.50899L3.04957 7.90091L2.7387 7.65777L2.42782 7.90091L2.54816 7.50536L2.23729 7.26222H2.61836L2.7387 6.86667ZM4.90477 6.86667L5.02511 7.26585H5.40284L5.09531 7.50899L5.2123 7.90091L4.90143 7.65777L4.5939 7.90091L4.7109 7.50536L4.40002 7.26222H4.78443L4.90477 6.86667ZM7.07419 6.86667L7.19119 7.26585H7.5756L7.26473 7.50899L7.38506 7.90091L7.07419 7.65777L6.76332 7.90091L6.88366 7.50536L6.57278 7.26222H6.95385L7.07419 6.86667ZM9.24027 6.86667L9.3606 7.26585H9.74167L9.43414 7.50899L9.55114 7.90091L9.24027 7.65777L8.93274 7.90091L9.04973 7.50536L8.7422 7.26222H9.12327L9.24027 6.86667ZM11.4097 6.86667L11.5267 7.26585H11.9111L11.6002 7.50899L11.7206 7.90091L11.4097 7.65777L11.0988 7.90091L11.2192 7.50536L10.9083 7.26222H11.2927L11.4097 6.86667ZM1.65566 7.86825L1.77265 8.26379H2.15706L1.84619 8.50693L1.96319 8.90611L1.65566 8.65934L1.34479 8.90248L1.46178 8.50693L1.15425 8.26379H1.53532L1.65566 7.86825ZM3.82173 7.86825L3.94207 8.26379H4.32314L4.01227 8.50693L4.13261 8.90611L3.82173 8.65934L3.51086 8.90248L3.6312 8.50693L3.32033 8.26379H3.70474L3.82173 7.86825ZM5.99115 7.86825L6.10815 8.26379H6.49256L6.18169 8.50693L6.29868 8.90611L5.99115 8.65934L5.68028 8.90248L5.79728 8.50693L5.48975 8.26379H5.87082L5.99115 7.86825ZM8.15723 7.86825L8.27757 8.26379H8.65863L8.35111 8.50693L8.4681 8.90611L8.15723 8.65934L7.8497 8.90248L7.96669 8.50693L7.65582 8.26379H8.04358L8.15723 7.86825ZM10.3266 7.86825L10.4436 8.26379H10.8281L10.5172 8.50693L10.6342 8.90611L10.3266 8.65934L10.0158 8.90248L10.1328 8.50693L9.82524 8.26379H10.2063L10.3266 7.86825ZM0.569278 8.86982L0.689615 9.26537H1.07068L0.763155 9.5085L0.88015 9.90405L0.569278 9.66091L0.261748 9.90405L0.378743 9.50487L0.0678711 9.26174H0.455625L0.569278 8.86982ZM2.7387 8.86982L2.85569 9.26537H3.2401L2.92923 9.5085L3.04957 9.90405L2.7387 9.66091L2.42782 9.90405L2.54816 9.50487L2.23729 9.26174H2.61836L2.7387 8.86982ZM4.90477 8.86982L5.02511 9.26537H5.40284L5.10199 9.5085L5.21899 9.90405L4.90811 9.66091L4.60059 9.90405L4.71758 9.50487L4.40671 9.26174H4.79112L4.90477 8.86982ZM7.07419 8.86982L7.19119 9.26537H7.5756L7.26473 9.5085L7.38506 9.90405L7.07419 9.66091L6.76332 9.90405L6.88366 9.50487L6.57278 9.26174H6.95385L7.07419 8.86982ZM9.24027 8.86982L9.3606 9.26537H9.74167L9.43414 9.5085L9.55114 9.90405L9.24027 9.66091L8.93274 9.90405L9.04973 9.50487L8.7422 9.26174H9.12327L9.24027 8.86982ZM11.4097 8.86982L11.5267 9.26537H11.9111L11.6002 9.5085L11.7206 9.90405L11.4097 9.66091L11.0988 9.90405L11.2192 9.50487L10.9083 9.26174H11.2927L11.4097 8.86982Z" fill="white"/>
</svg>
