<svg width="438" height="330" viewBox="0 0 438 330" fill="none" xmlns="http://www.w3.org/2000/svg">
<path d="M230.6 329.508C228.3 322.308 225.4 317.708 218.9 316.408C217.8 316.208 216.5 314.708 216 313.408C214.1 308.508 212.5 303.408 210.8 298.308C197.1 298.608 204.4 287.508 201.5 281.508C194.9 280.408 187.9 279.308 180.9 278.108C179.8 277.908 178.6 277.708 177.8 277.108C173.9 274.008 169.3 271.408 166.6 267.508C162.1 261.108 153.8 261.908 149 256.708C147.7 255.308 146.4 253.408 146.2 251.608C145.8 248.308 146 245.008 146.1 241.608C146.3 237.408 144.5 234.908 141.1 232.408C136.3 228.908 131.7 224.908 128.1 220.208C126.2 217.708 126.3 213.308 126.4 209.808C126.5 203.508 123.7 198.608 119.7 194.308C118.4 192.908 115.6 192.908 114.3 191.508C110.4 187.708 106.7 183.708 103.4 179.408C98.5 172.908 94.3 165.908 89.3 159.508C88.1 157.908 84.9 158.008 82.6 157.208C80.1 156.308 77.2 155.808 77.4 151.808C77.5 150.608 75.6 149.008 74.3 148.108C71.6 146.208 68.6 144.508 65.7 143.008C62.9 141.508 59.8 140.508 57.2 138.808C49.5 133.708 40.8 137.208 32.9 135.508C29.6 134.808 27.1 130.608 24.3 127.908C23.4 127.008 22.5 125.408 21.5 125.308C16.1 124.808 13.6 120.508 12.5 116.608C10.5 109.108 9 101.308 11.8 93.408C12.8 90.508 13.2 87.408 13.6 84.408C14 80.908 13 78.108 10.6 75.008C7.7 71.208 6.7 66.008 4.7 61.608C3.9 59.808 2.4 58.208 1.2 56.608C0.8 56.808 0.4 57.008 0 57.208C0 52.108 0 47.008 0 41.408C5.5 40.208 11.1 39.508 16.4 37.808C19.2 36.908 21.8 34.408 24 32.108C27 28.908 29.4 25.208 32.2 21.808C32.7 21.208 34.1 20.908 34.9 21.108C38.3 21.908 41.6 23.308 45.1 23.908C46.8 24.208 49.2 23.808 50.5 22.708C54.8 19.308 58.8 15.508 63.5 11.408C65.7 12.908 68 14.408 70.1 16.008C74.3 19.108 72.3 22.208 69.7 25.008C66.8 28.108 64.8 30.408 69.3 34.508C72 37.008 72.4 42.108 74.1 46.908C74.4 46.908 75.9 47.308 77.3 47.208C85.1 46.508 91.3 49.708 96.1 55.308C97.8 57.308 97.8 60.708 98.8 63.408C99.2 64.608 100 66.508 100.7 66.608C106 66.908 112.3 68.708 116.3 66.408C122.7 62.608 129.5 62.308 136.5 60.608C135.9 54.608 140.6 52.408 144.7 49.208C150.7 44.608 156.2 39.308 161.5 33.908C164 31.308 169.6 28.608 173 30.708C174.9 31.908 175.9 35.508 176.2 38.108C176.8 42.808 176.1 47.708 179.4 51.708C180 52.408 180.7 53.408 181.4 53.408C187.1 53.108 192.8 52.608 198.5 52.308C201.6 52.108 204.8 51.808 207.9 52.108C214.4 52.608 220.2 51.408 225.7 47.808C227.8 46.508 230.5 46.208 233.3 45.308C233.9 47.508 234.3 49.008 234.9 50.908C237 49.608 238.6 48.208 240.5 47.508C249.3 43.908 258.2 40.508 267.1 37.008C268 36.608 269.4 36.108 269.5 35.508C270.6 29.208 276.7 28.008 280.6 25.008C285.7 21.108 292.3 18.908 298.6 17.108C304.6 15.308 311 15.008 317.1 13.808C321.5 13.008 326.1 12.408 330.1 10.508C333.9 8.708 336.8 5.208 340.3 2.608C341.7 1.608 343.2 0.408 344.9 0.208C347.5 -0.192 350.2 0.108 352.9 0.108C355.6 0.108 358.1 -0.392 360.2 2.708C361.1 4.108 364.4 4.108 366.6 4.408C372.4 5.108 378.3 5.308 383 9.208C384.4 10.408 385.8 12.008 386.2 13.708C387.1 18.508 387.5 23.408 388 28.208C388.4 31.908 386.6 34.808 385 38.108C383 42.408 384.1 48.208 383.9 53.308C383.8 56.608 383.9 59.908 383.9 63.108C383.8 69.908 381.4 77.808 384.1 83.108C388.2 90.808 394.9 98.108 406.1 98.108C406.1 106.108 406.1 114.008 406.1 121.708C409.8 122.608 412.9 123.308 416 124.008C416.3 124.108 416.9 123.908 417 124.108C422.1 133.108 431.7 123.408 437.9 130.808C437.9 132.708 437.9 136.308 437.9 140.008C432.2 141.408 428.5 148.408 428.9 155.708C429.2 160.708 428 165.708 427.9 170.808C427.9 173.008 428.5 175.308 429.5 177.308C434 185.708 432.4 194.008 429.8 202.408C429.1 204.608 428.6 207.708 429.6 209.508C431.2 212.508 430.5 214.208 428.3 215.908C421.7 221.008 424.6 227.808 424.9 234.208C425 235.608 425.7 236.908 426.1 238.508C424.8 238.808 423.9 239.208 423.2 239.008C415.7 236.908 412.6 243.108 408.4 247.008C407.6 247.808 407.6 249.808 407.6 251.208C407.5 261.808 407.6 272.408 407.6 283.108C406.5 283.308 405.9 283.608 405.3 283.508C398.7 282.408 396 287.708 392.2 291.408C388.8 294.608 385.4 298.008 381.4 300.308C377.3 302.508 374.1 304.408 372.3 309.308C371.1 312.508 367.1 314.808 364.2 317.308C360.7 320.208 356.8 322.608 353.3 325.508C349.3 328.808 344.7 329.808 339.7 329.708C336.5 329.608 333.3 329.308 330.2 329.808C323.2 330.808 319.5 327.208 316.7 321.608C314 316.108 313.8 316.508 309.2 320.408C307 322.308 303.4 323.008 300.3 323.508C296.7 324.108 292.7 322.608 289.7 326.308C289.1 327.008 287.2 326.608 285.9 326.708C278.5 327.208 271.2 327.608 263.8 328.108C252.6 327.908 241.5 328.708 230.6 329.508ZM165.9 56.208C165.9 74.108 165.9 91.608 165.9 109.108C183.7 109.108 201.2 109.108 218.7 109.108C218.7 91.308 218.7 73.908 218.7 56.208C201.1 56.208 183.8 56.208 165.9 56.208ZM163.9 164.608C163.9 146.608 163.9 129.108 163.9 111.408C146.2 111.408 128.8 111.408 111.3 111.408C111.3 129.308 111.3 146.908 111.3 164.608C129 164.608 146.2 164.608 163.9 164.608ZM220.8 111.408C220.8 129.408 220.8 146.908 220.8 164.508C238.5 164.508 255.9 164.508 273.5 164.508C273.5 146.708 273.5 129.208 273.5 111.408C255.8 111.408 238.4 111.408 220.8 111.408ZM218.8 166.608C200.9 166.608 183.5 166.608 165.9 166.608C165.9 184.408 165.9 201.908 165.9 219.608C183.7 219.608 201.1 219.608 218.8 219.608C218.8 201.808 218.8 184.408 218.8 166.608ZM273.4 274.908C273.4 256.908 273.4 239.408 273.4 221.808C255.6 221.808 238.1 221.808 220.8 221.808C220.8 239.708 220.8 257.308 220.8 274.908C238.4 274.908 255.7 274.908 273.4 274.908ZM275.4 219.508C292.9 219.508 310.3 219.508 328.1 219.508C328.1 201.808 328.1 184.208 328.1 166.608C310.4 166.608 293 166.608 275.4 166.608C275.4 184.308 275.4 201.708 275.4 219.508ZM328.2 56.208C310.6 56.208 293.1 56.208 275.5 56.208C275.5 74.008 275.5 91.508 275.5 109.208C293.2 109.208 310.5 109.208 328.2 109.208C328.2 91.708 328.2 74.308 328.2 56.208ZM330.4 221.608C330.4 239.708 330.4 257.208 330.4 274.708C347.6 274.708 364.5 274.708 381.5 274.708C381.5 256.908 381.5 239.408 381.5 221.608C364.3 221.608 347.5 221.608 330.4 221.608ZM381.5 111.508C364.2 111.508 347.3 111.508 330.3 111.508C330.3 129.308 330.3 146.808 330.3 164.508C347.5 164.508 364.4 164.508 381.5 164.508C381.5 146.708 381.5 129.308 381.5 111.508ZM56.5 55.908C56.5 74.208 56.5 91.708 56.5 109.208C74.2 109.208 91.5 109.208 109.1 109.208C109.1 95.608 109.1 82.208 109.1 68.308C105.1 68.308 101.4 68.308 97.6 68.308C97.4 66.608 97.7 65.208 97.1 64.308C95.1 61.408 92.9 56.408 90.5 56.308C79.3 55.408 68 55.908 56.5 55.908ZM330 54.108C346 54.108 361.3 54.108 377 54.108C372.9 47.808 374.2 40.908 377.4 36.208C382.2 29.208 381.9 22.008 381.5 14.608C381.4 12.508 379.3 9.308 377.4 8.708C368.4 5.708 359 4.208 349.3 3.508C341.3 2.908 337.3 7.308 333.1 12.508C331.9 14.008 330.1 15.708 330.1 17.308C329.9 29.408 330 41.508 330 54.108ZM383.5 219.908C394.4 219.908 404.6 219.908 414.9 219.908C422.1 219.908 425.8 216.208 425.9 208.808C425.9 207.108 425.9 205.508 426.1 203.908C427 197.808 428 191.808 428.8 185.708C429 184.308 428.5 182.808 428 181.508C426.2 176.408 424.3 171.408 422.6 166.608C409.2 166.608 396.5 166.608 383.5 166.608C383.5 184.308 383.5 201.808 383.5 219.908ZM275.6 276.908C275.6 291.208 275.6 305.108 275.6 319.208C279.1 319.208 282.9 320.408 285.1 319.008C290.4 315.708 295.9 315.008 301.7 314.908C302.9 314.908 304.6 314.808 305.3 314.008C308.8 309.908 313.6 309.608 318.1 310.608C321.8 311.508 322.6 315.208 322.5 319.108C322.5 320.308 324.9 321.508 326.3 322.708C327 321.308 328.4 320.008 328.4 318.608C328.6 305.808 328.5 293.008 328.5 280.308C328.5 279.208 328.2 278.108 328.1 277.008C310.3 276.908 293 276.908 275.6 276.908ZM54.3 23.008C52.5 24.208 51.4 24.608 50.8 25.408C47.7 29.108 43.8 29.808 40.2 26.708C37.1 24.008 33.7 25.008 31.7 27.008C27.2 31.308 23.5 36.408 18.8 41.908C15.1 42.408 10 43.208 4.8 44.008C4.5 47.508 4.2 50.808 3.9 54.108C20.6 54.108 37.3 54.108 54.3 54.108C54.3 43.908 54.3 34.108 54.3 23.008ZM54.4 111.508C41.6 111.508 29.2 111.508 16.5 111.508C16.7 113.008 16.5 114.908 17 115.108C23.2 117.708 25.6 124.108 30.7 127.808C31.6 128.508 32.6 129.508 33.6 129.508C40.5 129.608 47.4 129.608 54.4 129.608C54.4 123.108 54.4 117.508 54.4 111.508ZM273.5 36.908C270.4 38.208 267.7 39.508 264.8 40.608C259.2 42.708 253.5 44.508 248 46.808C244.7 48.208 241.9 50.608 238.6 52.008C237 52.708 234 52.908 233.1 51.908C231.2 49.908 229.9 48.108 226.8 49.708C224.7 50.808 222.3 51.508 220 52.308C220.1 52.808 220.3 53.408 220.4 53.908C238 53.908 255.5 53.908 273.4 53.908C273.5 48.208 273.5 42.508 273.5 36.908ZM139.1 221.608C150.7 228.708 155.5 237.808 153.3 250.108C157.1 250.908 160.3 251.608 164 252.408C164 241.708 164 231.808 164 221.608C156 221.608 148.3 221.608 139.1 221.608ZM383.6 109.208C390.2 109.208 396.4 109.208 403.2 109.208C402.1 105.608 405.3 100.808 399.7 99.508C394.2 98.308 390.6 94.808 386.9 91.108C386.2 90.408 385.1 90.008 383.6 89.108C383.6 96.208 383.6 102.508 383.6 109.208ZM142.9 54.108C150.4 54.108 157.1 54.108 163.8 54.108C163.8 48.008 163.8 42.308 163.8 36.908C156.9 42.608 150.2 48.108 142.9 54.108ZM218.7 292.408C218.7 287.408 218.7 282.208 218.7 277.008C207.4 275.508 203.8 280.508 207.7 291.608C211.2 291.908 214.8 292.208 218.7 292.408ZM382.5 276.808C383.4 282.208 384.1 286.808 385 292.108C390.9 286.708 396.1 282.008 401.8 276.808C395.1 276.808 389.4 276.808 382.5 276.808ZM108.1 176.708C108.4 176.508 108.7 176.408 109.1 176.208C109.1 173.008 109.1 169.808 109.1 166.508C106.6 166.508 104.4 166.508 102.1 166.508C104.3 170.208 106.2 173.508 108.1 176.708Z" fill="black"/>
<path d="M165.9 56.208C183.7 56.208 201.1 56.208 218.7 56.208C218.7 73.908 218.7 91.308 218.7 109.108C201.2 109.108 183.7 109.108 165.9 109.108C165.9 91.608 165.9 74.108 165.9 56.208Z" fill="white"/>
<path d="M163.9 164.608C146.2 164.608 129 164.608 111.3 164.608C111.3 146.908 111.3 129.308 111.3 111.408C128.8 111.408 146.2 111.408 163.9 111.408C163.9 129.108 163.9 146.608 163.9 164.608Z" fill="white"/>
<path d="M220.8 111.408C238.5 111.408 255.8 111.408 273.5 111.408C273.5 129.208 273.5 146.708 273.5 164.508C255.9 164.508 238.6 164.508 220.8 164.508C220.8 146.908 220.8 129.408 220.8 111.408Z" fill="white"/>
<path d="M218.8 166.608C218.8 184.408 218.8 201.808 218.8 219.608C201.1 219.608 183.7 219.608 165.9 219.608C165.9 201.908 165.9 184.408 165.9 166.608C183.5 166.608 200.9 166.608 218.8 166.608Z" fill="white"/>
<path d="M273.4 274.908C255.7 274.908 238.4 274.908 220.8 274.908C220.8 257.308 220.8 239.708 220.8 221.808C238.1 221.808 255.6 221.808 273.4 221.808C273.4 239.408 273.4 256.908 273.4 274.908Z" fill="white"/>
<path d="M328.2 56.208C328.2 74.308 328.2 91.608 328.2 109.208C310.6 109.208 293.2 109.208 275.5 109.208C275.5 91.508 275.5 74.008 275.5 56.208C293.1 56.208 310.5 56.208 328.2 56.208Z" fill="white"/>
<path d="M330.4 221.608C347.5 221.608 364.3 221.608 381.5 221.608C381.5 239.408 381.5 256.908 381.5 274.708C364.5 274.708 347.6 274.708 330.4 274.708C330.4 257.208 330.4 239.708 330.4 221.608Z" fill="white"/>
<path d="M381.5 111.508C381.5 129.408 381.5 146.808 381.5 164.508C364.4 164.508 347.5 164.508 330.3 164.508C330.3 146.908 330.3 129.408 330.3 111.508C347.3 111.508 364.2 111.508 381.5 111.508Z" fill="white"/>
<path d="M56.5 55.908C68 55.908 79.3 55.408 90.5 56.308C92.9 56.508 95.1 61.408 97.1 64.308C97.7 65.108 97.4 66.508 97.6 68.308C101.4 68.308 105.2 68.308 109.1 68.308C109.1 82.308 109.1 95.608 109.1 109.208C91.5 109.208 74.1 109.208 56.5 109.208C56.5 91.708 56.5 74.208 56.5 55.908Z" fill="white"/>
<path d="M330 54.1079C330 41.5079 329.9 29.4079 330.1 17.3079C330.1 15.7079 331.9 14.0079 333.1 12.5079C337.2 7.30795 341.2 2.90795 349.3 3.50795C359 4.20795 368.3 5.70795 377.4 8.70795C379.3 9.30795 381.4 12.5079 381.5 14.6079C381.9 22.0079 382.2 29.2079 377.4 36.2079C374.2 40.9079 372.9 47.7079 377 54.1079C361.3 54.1079 346 54.1079 330 54.1079Z" fill="white"/>
<path d="M383.5 219.908C383.5 201.808 383.5 184.308 383.5 166.508C396.5 166.508 409.2 166.508 422.6 166.508C424.4 171.308 426.3 176.308 428 181.408C428.5 182.708 429 184.308 428.8 185.608C428 191.708 427 197.708 426.1 203.808C425.9 205.408 425.9 207.108 425.9 208.708C425.8 216.108 422.2 219.808 414.9 219.808C404.6 219.908 394.3 219.908 383.5 219.908Z" fill="white"/>
<path d="M275.6 276.908C293 276.908 310.4 276.908 328 276.908C328.2 278.108 328.4 279.108 328.4 280.208C328.4 293.008 328.5 305.808 328.3 318.508C328.3 319.908 326.9 321.208 326.2 322.608C324.9 321.408 322.4 320.108 322.4 319.008C322.5 315.108 321.7 311.408 318 310.508C313.6 309.508 308.8 309.808 305.2 313.908C304.5 314.708 302.8 314.808 301.6 314.808C295.7 314.908 290.2 315.608 285 318.908C282.8 320.308 279 319.108 275.5 319.108C275.6 305.108 275.6 291.208 275.6 276.908Z" fill="white"/>
<path d="M54.2999 23.0081C54.2999 34.1081 54.2999 44.0081 54.2999 54.1081C37.2999 54.1081 20.5999 54.1081 3.8999 54.1081C4.1999 50.9081 4.4999 47.6081 4.7999 44.0081C9.9999 43.2081 15.0999 42.5081 18.7999 41.9081C23.4999 36.4081 27.1999 31.3081 31.6999 27.0081C33.7999 25.0081 37.0999 24.0081 40.1999 26.7081C43.7999 29.8081 47.6999 29.0081 50.7999 25.4081C51.3999 24.6081 52.4999 24.2081 54.2999 23.0081Z" fill="white"/>
<path d="M54.4 111.508C54.4 117.608 54.4 123.208 54.4 129.508C47.3 129.508 40.4 129.608 33.6 129.408C32.6 129.408 31.6 128.408 30.7 127.708C25.7 124.008 23.2 117.608 17 115.008C16.5 114.808 16.7 112.908 16.5 111.408C29.2 111.508 41.6 111.508 54.4 111.508Z" fill="white"/>
<path d="M273.5 36.908C273.5 42.508 273.5 48.308 273.5 53.908C255.6 53.908 238 53.908 220.5 53.908C220.4 53.408 220.2 52.808 220.1 52.308C222.4 51.408 224.7 50.808 226.9 49.708C230 48.108 231.3 49.908 233.2 51.908C234.1 52.908 237.1 52.608 238.7 52.008C242 50.608 244.8 48.208 248.1 46.808C253.6 44.508 259.3 42.708 264.9 40.608C267.7 39.508 270.4 38.208 273.5 36.908Z" fill="white"/>
<path d="M139.1 221.608C148.3 221.608 156 221.608 163.9 221.608C163.9 231.808 163.9 241.708 163.9 252.408C160.3 251.608 157.1 250.908 153.2 250.108C155.4 237.808 150.6 228.708 139.1 221.608Z" fill="white"/>
<path d="M383.6 109.208C383.6 102.508 383.6 96.208 383.6 89.108C385.2 90.008 386.2 90.408 386.9 91.108C390.6 94.808 394.2 98.308 399.7 99.508C405.3 100.708 402.1 105.508 403.2 109.208C396.4 109.208 390.2 109.208 383.6 109.208Z" fill="white"/>
<path d="M142.9 54.108C150.2 48.108 156.9 42.608 163.8 36.908C163.8 42.308 163.8 48.008 163.8 54.108C157.1 54.108 150.4 54.108 142.9 54.108Z" fill="white"/>
<path d="M218.7 292.408C214.8 292.108 211.2 291.908 207.7 291.608C203.8 280.508 207.5 275.508 218.7 277.008C218.7 282.208 218.7 287.408 218.7 292.408Z" fill="white"/>
<path d="M382.5 276.808C389.4 276.808 395.1 276.808 401.8 276.808C396.1 282.008 390.9 286.708 385 292.108C384.1 286.908 383.4 282.208 382.5 276.808Z" fill="white"/>
<path d="M108.1 176.708C106.2 173.408 104.2 170.208 102 166.608C104.4 166.608 106.5 166.608 109 166.608C109 169.908 109 173.108 109 176.308C108.8 176.408 108.5 176.608 108.1 176.708Z" fill="white"/>
</svg>
