<?xml version="1.0" encoding="utf-8"?><!-- Uploaded to: SVG Repo, www.svgrepo.com, Generator: SVG Repo Mixer Tools -->
<svg width="12px" height="12px" viewBox="0 0 24 24" fill="none" xmlns="http://www.w3.org/2000/svg">
<path d="M4 4H9C9.55228 4 10 4.44772 10 5Lnan nanL10 5C10 5.55228 9.55228 6 9 6H4C3.44772 6 3 6.44772 3 7V20C3 20.5523 3.44772 21 4 21H17C17.5523 21 18 20.5523 18 20V15C18 14.4477 18.4477 14 19 14Lnan nanL19 14C19.5523 14 20 14.4477 20 15V20C20 21.6569 18.6569 23 17 23H4C2.34315 23 1 21.6569 1 20V7C1 5.34315 2.34315 4 4 4Z" fill="#0F0F0F"/>
<path d="M14 2C14 1.44772 14.4477 1 15 1H21C22.1046 1 23 1.89543 23 3V9C23 9.55229 22.5523 10 22 10C21.4477 10 21 9.55228 21 9V4.41421L13.4406 11.9736C13.0501 12.3641 12.4169 12.3641 12.0264 11.9736C11.6359 11.5831 11.6359 10.9499 12.0264 10.5594L19.5858 3H15C14.4477 3 14 2.55228 14 2Z" fill="#0F0F0F"/>
</svg>